<svg width="28" height="28" viewBox="0 0 28 28" fill="none" xmlns="http://www.w3.org/2000/svg">
<g clip-path="url(#clip0_497_1502)">
<path d="M22.4614 27.1304H5.54439C3.2067 27.1304 1.29688 25.2206 1.29688 22.883V5.96621C1.29688 3.62854 3.2067 1.71875 5.54439 1.71875H22.4614C24.7991 1.71875 26.709 3.62854 26.709 5.96621V22.883C26.709 25.2311 24.8095 27.1304 22.4614 27.1304Z" fill="#111111"/>
<path d="M14.0109 20.9493C12.268 20.9493 10.6296 20.271 9.39809 19.0395C8.16662 17.808 7.48828 16.1696 7.48828 14.4268C7.48828 12.684 8.16662 11.0456 9.39809 9.8141C10.6296 8.58264 12.268 7.9043 14.0109 7.9043C15.7537 7.9043 17.3921 8.58264 18.6237 9.8141C19.8552 11.0456 20.5335 12.684 20.5335 14.4268C20.5335 16.1696 19.8552 17.808 18.6237 19.0395C17.3818 20.271 15.7537 20.9493 14.0109 20.9493ZM14.0109 9.29229C11.1827 9.29229 8.87629 11.5882 8.87629 14.4268C8.87629 17.255 11.1722 19.5614 14.0109 19.5614C16.8391 19.5614 19.1455 17.2655 19.1455 14.4268C19.135 11.5987 16.8391 9.29229 14.0109 9.29229Z" fill="#A8FF8A"/>
<path d="M21.7992 7.69025C22.4909 7.69025 23.0516 7.12956 23.0516 6.4379C23.0516 5.74625 22.4909 5.18555 21.7992 5.18555C21.1076 5.18555 20.5469 5.74625 20.5469 6.4379C20.5469 7.12956 21.1076 7.69025 21.7992 7.69025Z" fill="#A8FF8A"/>
</g>
<defs>
<clipPath id="clip0_497_1502">
<rect width="27.0003" height="27" fill="white" transform="translate(0.5 0.5)"/>
</clipPath>
</defs>
</svg>
