<svg width="30" height="32" viewBox="0 0 30 32" fill="none" xmlns="http://www.w3.org/2000/svg">
<g clip-path="url(#clip0_497_1508)">
<path d="M6.87076 10.8457H0.675781V30.601H6.87076V10.8457Z" fill="#111111"/>
<path d="M23.6313 10.4177C23.4028 10.3891 23.1603 10.3749 22.9176 10.3606C19.4489 10.2178 17.4934 12.2733 16.8083 13.1583C16.6228 13.401 16.5371 13.5437 16.5371 13.5437V10.903H10.6133V30.6582H16.5371H16.8083C16.8083 28.6455 16.8083 26.6472 16.8083 24.6346C16.8083 23.5497 16.8083 22.4649 16.8083 21.3801C16.8083 20.0383 16.7084 18.6109 17.3792 17.3833C17.9501 16.3557 18.9779 15.8418 20.1342 15.8418C23.5599 15.8418 23.6313 18.9393 23.6313 19.2247C23.6313 19.239 23.6313 19.2532 23.6313 19.2532V30.7438H29.8262V17.8545C29.8262 13.4438 27.5852 10.8459 23.6313 10.4177Z" fill="#111111"/>
<path d="M3.77676 8.2937C5.76338 8.2937 7.37386 6.68325 7.37386 4.69665C7.37386 2.71007 5.76338 1.09961 3.77676 1.09961C1.79015 1.09961 0.179688 2.71007 0.179688 4.69665C0.179688 6.68325 1.79015 8.2937 3.77676 8.2937Z" fill="#111111"/>
</g>
<defs>
<clipPath id="clip0_497_1508">
<rect width="30.0003" height="31.5" fill="white" transform="translate(0.00390625 0.5)"/>
</clipPath>
</defs>
</svg>
