<svg width="52" height="57" viewBox="0 0 52 57" fill="none" xmlns="http://www.w3.org/2000/svg">
<path d="M8.89417 9.61155C8.89417 9.61155 19.8423 3.70136 25.3153 0.742752C26.3115 0.212267 27.4144 -0.0411665 28.5242 0.00544064C30.1838 0.115452 32.1577 1.84989 32.1577 1.84989L52 23.2881V46.2009H42.7635V56.1792H21.2095L1.7095 35.1132C0.6565 33.9428 0 32.2927 0 30.6776C0 29.9309 0.39 28.7629 0.684667 28.0912L8.89417 9.61155ZM10.3653 11.2009V38.7904C10.3697 40.0613 10.4108 41.1872 11.4443 42.3201L22.1087 53.8385H40.5968V43.8602L10.3653 11.2009ZM36.4845 9.61389C34.5367 7.51665 32.565 5.4475 30.5478 3.4275C29.8935 2.80254 29.3193 2.33207 28.2295 2.34611C27.4278 2.37888 26.3445 2.80254 26.3445 2.80254L13.7388 9.61155L36.4845 9.61389Z" fill="white"/>
</svg>
