<svg width="52" height="52" viewBox="0 0 52 52" fill="none" xmlns="http://www.w3.org/2000/svg">
<path d="M26 0C11.6316 0 0 11.6316 0 26C0 40.3684 11.6316 52 26 52C40.3684 52 52 40.3684 52 26C52 11.6316 40.3684 0 26 0ZM26 49.2632C13.1368 49.2632 2.73684 38.8632 2.73684 26C2.73684 13.1368 13.1368 2.73684 26 2.73684C38.8632 2.73684 49.2632 13.1368 49.2632 26C49.2632 38.8632 38.8632 49.2632 26 49.2632ZM18.4737 28.7368C15.8053 28.7368 13.6842 30.8579 13.6842 33.5263C13.6842 36.1947 15.8053 38.3158 18.4737 38.3158C21.1421 38.3158 23.2632 36.1947 23.2632 33.5263C23.2632 30.8579 21.1421 28.7368 18.4737 28.7368ZM18.4737 35.5789C17.3105 35.5789 16.4211 34.6895 16.4211 33.5263C16.4211 32.3632 17.3105 31.4737 18.4737 31.4737C19.6368 31.4737 20.5263 32.3632 20.5263 33.5263C20.5263 34.6895 19.6368 35.5789 18.4737 35.5789ZM18.5421 13.7526C15.8737 13.7526 13.7526 15.8737 13.7526 18.5421C13.7526 21.2105 15.8737 23.3316 18.5421 23.3316C21.2105 23.3316 23.3316 21.2105 23.3316 18.5421C23.3316 15.8737 21.1421 13.7526 18.5421 13.7526ZM18.5421 20.5947C17.3789 20.5947 16.4895 19.6368 16.4895 18.5421C16.4895 17.3789 17.4474 16.4895 18.5421 16.4895C19.6368 16.4895 20.5947 17.4474 20.5947 18.5421C20.5947 19.6368 19.6368 20.5947 18.5421 20.5947ZM33.4579 28.6684C30.7895 28.6684 28.6684 30.7895 28.6684 33.4579C28.6684 36.1263 30.7895 38.2474 33.4579 38.2474C36.1263 38.2474 38.2474 36.1263 38.2474 33.4579C38.2474 30.7895 36.1263 28.6684 33.4579 28.6684ZM33.4579 35.5105C32.3632 35.5105 31.4053 34.6211 31.4053 33.4579C31.4053 32.3632 32.3632 31.4053 33.4579 31.4053C34.6211 31.4053 35.5105 32.3632 35.5105 33.4579C35.5105 34.6211 34.6211 35.5105 33.4579 35.5105ZM33.5263 13.6842C30.8579 13.6842 28.7368 15.8053 28.7368 18.4737C28.7368 21.1421 30.8579 23.2632 33.5263 23.2632C36.1947 23.2632 38.3158 21.1421 38.3158 18.4737C38.3158 15.8053 36.1947 13.6842 33.5263 13.6842ZM33.5263 20.5263C32.3632 20.5263 31.4737 19.6368 31.4737 18.4737C31.4737 17.3105 32.3632 16.4211 33.5263 16.4211C34.6211 16.4211 35.5789 17.3105 35.5789 18.4737C35.5789 19.6368 34.6211 20.5263 33.5263 20.5263Z" fill="white"/>
</svg>
