<svg width="39" height="57" viewBox="0 0 39 57" fill="none" xmlns="http://www.w3.org/2000/svg">
<path d="M4.07952 0.111897C4.72407 -0.135449 5.44543 0.0347384 5.93017 0.548508L13.2748 8.33329C13.2328 8.40115 13.1944 8.47272 13.1602 8.54781L0 37.4075L4.07952 0.111897Z" fill="white"/>
<path d="M0.304688 44.7161L17.904 55.9086C18.3774 56.2097 18.9564 56.2588 19.4691 56.0412L37.1357 48.551C37.8731 48.2387 38.3233 47.4425 38.2353 46.6058L34.702 12.9001C34.6292 12.2045 34.1964 11.6099 33.5798 11.3589C32.9632 11.1079 32.2661 11.2423 31.7725 11.7074L25.9247 17.217L0.304688 44.7161Z" fill="white"/>
<path d="M23.8959 14.0666L20.284 8.32408C19.9423 7.78074 19.3582 7.46537 18.7426 7.49177C18.127 7.51817 17.5689 7.88257 17.2697 8.45339L16.1751 10.5417L5.625 33.6776L23.8959 14.0666Z" fill="white"/>
</svg>
