<svg width="52" height="52" viewBox="0 0 52 52" fill="none" xmlns="http://www.w3.org/2000/svg">
<path d="M7.21094 46.7188L3.04688 0H48.8516L44.6875 46.7188L25.8984 52" fill="white"/>
<path d="M26 47.9375L41.1328 43.7734L44.6875 3.75781H26" fill="white"/>
<path d="M26 21.125H18.3828L17.875 15.2344H26V9.54688H25.8984H11.5781L11.6797 11.0703L13.1016 26.9141H26V21.125ZM26 36.0547H25.8984L19.5 34.3281L19.0938 29.7578H16.0469H13.4062L14.1172 38.7969L25.8984 42.0469H26V36.0547Z" fill="#222222"/>
<path d="M25.8984 21.125V26.9141H33.0078L32.2969 34.3281L25.8984 36.0547V42.0469L37.6797 38.7969L37.7812 37.7812L39.1016 22.6484L39.3047 21.125H37.6797H25.8984ZM25.8984 9.54688V13.1016V15.2344H39.8125L39.9141 14.0156L40.2188 11.0703L40.3203 9.54688H25.8984Z" fill="#222222"/>
</svg>
