<svg width="52" height="52" viewBox="0 0 52 52" fill="none" xmlns="http://www.w3.org/2000/svg">
<path d="M7.24691 46.8019L3.07422 0H48.9252L44.7481 46.7945L25.9717 52L7.24691 46.8019Z" fill="white"/>
<path d="M41.1722 43.8144L44.7419 3.82617H26V48.0207L41.1722 43.8144Z" fill="white"/>
<path d="M12.6393 21.1844L13.1537 26.9245H25.9988V21.1844H12.6393ZM12.1273 15.3065H25.9988V9.56641H11.6055L12.1273 15.3065ZM25.9988 36.092L25.9736 36.0987L19.5809 34.3725L19.1723 29.7945H13.41L14.2143 38.8073L25.9724 42.0715L25.9988 42.0641V36.092Z" fill="#222222"/>
<path d="M25.9805 21.1844V26.9245H33.0487L32.3825 34.3689L25.9805 36.0968V42.0686L37.7479 38.8073L37.8342 37.8374L39.183 22.7258L39.3231 21.1844L40.3594 9.56641H25.9805V15.3065H34.0688L33.5464 21.1844H25.9805Z" fill="#222222"/>
</svg>
