<svg width="52" height="52" viewBox="0 0 52 52" fill="none" xmlns="http://www.w3.org/2000/svg">
<g clip-path="url(#clip0_497_1365)">
<path d="M16.9753 8.66666C8.87195 8.86166 1.26695 14.768 0.131618 23.8637C-0.242886 26.8844 0.185188 29.9505 1.37272 32.7531C2.56025 35.5557 4.4653 37.9958 6.89595 39.8277C12.8695 44.3343 20.325 44.2628 26.006 40.9933C28.6388 42.5176 31.6267 43.3214 34.6689 43.3237C37.7111 43.326 40.7002 42.5268 43.3354 41.0066C45.9706 39.4863 48.1589 37.2986 49.68 34.6637C51.2011 32.0288 52.0014 29.0396 52.0003 25.9971C51.9992 22.9545 51.1967 19.9659 49.6737 17.3321C48.1507 14.6983 45.9608 12.5122 43.3245 10.9939C40.6882 9.47553 37.6985 8.67851 34.6564 8.68304C31.6142 8.68756 28.6269 9.49347 25.9951 11.0197C23.2649 9.40839 20.1382 8.59332 16.9688 8.66666H16.9753ZM17.2396 11.8842C20.6306 11.8663 23.9151 13.0681 26.494 15.2703C29.0729 17.4726 30.7744 20.5286 31.2883 23.881C31.2883 23.8962 31.2926 23.9092 31.2948 23.9243C31.3381 24.2342 31.375 24.5462 31.3988 24.8625L31.4118 24.9795C31.4335 25.3045 31.4465 25.636 31.4486 25.9675C31.4486 26.1495 31.4378 26.3315 31.4313 26.5135C31.427 26.6392 31.4248 26.767 31.4161 26.8927C31.4005 27.1351 31.3789 27.3771 31.3511 27.6185L31.3295 27.7918C31.297 28.0518 31.258 28.3118 31.2103 28.5675L31.1886 28.6715C31.141 28.9402 31.0803 29.2088 31.0153 29.4732L31.0023 29.5273C30.784 30.3836 30.4866 31.2178 30.114 32.019C30.0988 32.0537 30.0771 32.0905 30.062 32.1273C29.2187 33.8796 28.0239 35.4394 26.552 36.7098L26.435 36.8095C26.2616 36.9547 26.084 37.0912 25.9041 37.2298C25.785 37.3208 25.6658 37.4118 25.5401 37.5007C25.4535 37.5657 25.3668 37.622 25.2758 37.6827C24.509 38.2015 23.6942 38.6455 22.8426 39.0087C20.5601 39.9754 18.0634 40.3242 15.6034 40.0199C13.1434 39.7156 10.8069 38.7691 8.82862 37.2753C0.151117 30.732 1.81728 17.2467 11.8251 13.0087C13.5383 12.281 15.3784 11.8974 17.2396 11.8842ZM18.5613 19.9442C18.1648 19.9442 17.8181 19.9723 17.7986 20.0135C17.777 20.0655 17.5126 21.1055 17.2266 22.3405C16.932 23.5755 16.4618 25.5212 16.1975 26.6738C15.6883 28.7842 15.3806 30.1687 15.3806 30.3528C15.3806 30.4027 15.697 30.4438 16.0848 30.4438H16.789L17.1053 29.0355L18.0218 25.1442C18.3468 23.7683 18.7455 22.0935 18.8993 21.4175C19.051 20.7458 19.2026 20.137 19.2351 20.0655C19.2655 19.9723 19.0921 19.942 18.5635 19.942L18.5613 19.9442ZM13.2725 23.4108L12.3235 24.4292L11.3853 25.4475L11.6605 25.7725C11.8121 25.9588 12.2325 26.4182 12.5878 26.7952L13.2421 27.4885H15.0968L14.2193 26.5395C13.7405 26.0303 13.3418 25.5428 13.3418 25.4778C13.3418 25.4085 13.7101 24.9513 14.1586 24.4595C14.6071 23.9612 14.9733 23.5322 14.9733 23.4845C14.9733 23.4412 14.5876 23.4108 14.1175 23.4108H13.2725ZM20.3575 23.4108C19.857 23.4108 19.4583 23.4412 19.4583 23.4715C19.4583 23.5018 19.6316 23.6947 19.8483 23.9092C20.6413 24.7043 21.2003 25.3782 21.17 25.5125C21.1505 25.5818 20.7626 26.0607 20.2925 26.5612L19.4475 27.4885H20.3943L21.3433 27.4777L22.21 26.5287C22.6866 26 23.0766 25.532 23.0766 25.467C23.0766 25.4172 22.6693 24.9383 22.158 24.3988L21.2415 23.4087L20.3575 23.4108Z" fill="white"/>
</g>
<defs>
<clipPath id="clip0_497_1365">
<rect width="52" height="52" fill="white"/>
</clipPath>
</defs>
</svg>
