<svg width="52" height="52" viewBox="0 0 52 52" fill="none" xmlns="http://www.w3.org/2000/svg">
<path d="M49.7017 23.8063L28.1946 2.30026C26.9563 1.06137 24.9476 1.06137 23.7082 2.30026L19.2426 6.7669L24.9074 12.4317C26.224 11.9867 27.7336 12.2853 28.7827 13.335C29.8383 14.3911 30.1342 15.9135 29.678 17.235L35.1385 22.695C36.46 22.2393 37.9835 22.5342 39.0385 23.5908C40.5128 25.065 40.5128 27.4538 39.0385 28.9291C37.5632 30.4038 35.1744 30.4038 33.6986 28.9291C32.59 27.8194 32.3155 26.1897 32.8779 24.8238L27.7851 19.7315V33.132C28.1443 33.3099 28.4836 33.5469 28.7827 33.846C30.257 35.3203 30.257 37.709 28.7827 39.1849C27.3085 40.6586 24.9181 40.6586 23.445 39.1849C21.9707 37.7085 21.9707 35.3197 23.445 33.846C23.8095 33.482 24.2314 33.2065 24.6817 33.0221V19.4967C24.2314 19.3123 23.8106 19.0394 23.445 18.6728C22.3283 17.5566 22.0597 15.9173 22.6323 14.546L17.0479 8.96055L2.30026 23.7066C1.06137 24.9465 1.06137 26.9552 2.30026 28.1941L23.8084 49.7007C25.0468 50.9396 27.0549 50.9396 28.2949 49.7007L49.7017 28.2938C50.9406 27.0549 50.9406 25.0452 49.7017 23.8063Z" fill="white"/>
</svg>
