<svg width="52" height="52" viewBox="0 0 52 52" fill="none" xmlns="http://www.w3.org/2000/svg">
<g clip-path="url(#clip0_497_1391)">
<path fill-rule="evenodd" clip-rule="evenodd" d="M30.076 35.9708C35.1425 35.3725 40.5311 33.5303 40.5311 24.7794C40.5311 22.2922 39.6552 20.2652 38.2286 18.699C38.4588 18.1008 39.195 15.8436 37.951 12.7122C37.951 12.7122 36.1087 12.1132 31.7801 15.0145C29.9379 14.5084 27.9116 14.1854 26.0234 14.1854C24.0883 14.1854 22.0613 14.5084 20.2651 15.0145C15.8896 12.1132 14.0474 12.7122 14.0474 12.7122C12.8042 15.8436 13.5413 18.1008 13.7714 18.699C12.3433 20.2651 11.4682 22.2922 11.4682 24.7794C11.4682 33.5303 16.8568 35.3725 21.9233 35.9708C21.279 36.5245 20.6801 37.5829 20.4499 39.057C19.1599 39.6093 15.7975 40.6691 13.7714 37.1687C13.7714 37.1687 12.5734 35.0044 10.317 34.8664C10.317 34.8664 8.0599 34.8204 10.1329 36.2468C10.1329 36.2468 11.6523 36.9387 12.6662 39.5632C12.6662 39.5632 14.0474 43.9394 20.4031 42.5572V46.4717C20.4031 47.0716 19.943 47.7618 18.7918 47.5778C9.76412 44.5836 3.27031 36.0167 3.27031 25.9766C3.27031 13.4025 13.4485 3.22441 26.0234 3.22441C38.5508 3.22441 48.7757 13.4026 48.7297 25.9766C48.7297 36.0167 42.2352 44.5376 33.2081 47.5778C32.0562 47.8079 31.596 47.1177 31.596 46.4717V40.1629C31.5961 38.043 30.9042 36.6625 30.076 35.9708ZM52 26.0234C52 11.6523 40.347 0 26.0234 0C11.6523 0 0 11.6523 0 26.0234C0 40.347 11.6523 52 26.0234 52C40.347 52 52 40.347 52 26.0234Z" fill="white"/>
</g>
<defs>
<clipPath id="clip0_497_1391">
<rect width="52" height="52" fill="white"/>
</clipPath>
</defs>
</svg>
