<svg width="89" height="23" viewBox="0 0 89 23" fill="none" xmlns="http://www.w3.org/2000/svg">
<path d="M30.5992 16.1163V17.9293H36.9449V22.1219H25.1602V6.25791H36.7182V10.4505H30.5992V12.1503H36.4916V16.1163H30.5992Z" fill="white"/>
<path d="M50.512 16.2296L55.0672 22.1219H48.7216L45.0955 17.3854V22.1219H39.6564V6.25791H46.41C50.3307 6.25791 53.2542 8.3429 53.2542 11.8103C53.2542 13.8273 52.2117 15.3457 50.512 16.2296ZM45.9114 10.3372H45.0955V13.2834H45.9114C47.0899 13.2834 47.7018 12.6942 47.7018 11.8103C47.7018 10.9265 47.0899 10.3372 45.9114 10.3372Z" fill="white"/>
<path d="M62.7938 15.867L65.876 6.25791H71.4284L65.4681 22.1219H60.029L54.0686 6.25791H59.7117L62.7938 15.867Z" fill="white"/>
<path d="M80.2069 22.4619C75.6517 22.4619 71.4137 19.5157 71.4137 14.1899C71.4137 8.86414 75.6517 5.91797 80.2069 5.91797C84.7621 5.91797 89.0001 8.86414 89.0001 14.1899C89.0001 19.5157 84.7621 22.4619 80.2069 22.4619ZM80.2069 17.5894C82.1786 17.5894 83.4477 16.2296 83.4477 14.1899C83.4477 12.1503 82.1786 10.7905 80.2069 10.7905C78.2352 10.7905 76.9661 12.1503 76.9661 14.1899C76.9661 16.2296 78.2352 17.5894 80.2069 17.5894Z" fill="white"/>
<path d="M5.54688 5.88528V22.2855H10.9608V16.8186L16.3747 22.2855H21.7886V5.88477H16.3747V11.3517L10.9608 5.88477L5.54688 5.88528Z" fill="white"/>
<rect width="5.27977" height="5.27977" fill="#A8FF8A"/>
</svg>
