<svg width="118" height="30" viewBox="0 0 118 30" fill="none" xmlns="http://www.w3.org/2000/svg">
<path d="M40.5706 21.3648V23.7686H48.9837V29.3272H33.3594V8.29445H48.6833V13.8531H40.5706V16.1066H48.3828V21.3648H40.5706Z" fill="white"/>
<path d="M66.9712 21.5151L73.0106 29.3272H64.5975L59.79 23.0475V29.3272H52.5788V8.29445H61.5327C66.7308 8.29445 70.6069 11.0588 70.6069 15.6559C70.6069 18.3301 69.2247 20.3432 66.9712 21.5151ZM60.8717 13.7029H59.79V17.609H60.8717C62.4341 17.609 63.2454 16.8278 63.2454 15.6559C63.2454 14.4841 62.4341 13.7029 60.8717 13.7029Z" fill="white"/>
<path d="M83.2547 21.0343L87.3411 8.29445H94.7026L86.8002 29.3272H79.589L71.6867 8.29445H79.1684L83.2547 21.0343Z" fill="white"/>
<path d="M106.341 29.7779C100.302 29.7779 94.6831 25.8719 94.6831 18.8108C94.6831 11.7498 100.302 7.84375 106.341 7.84375C112.381 7.84375 117.999 11.7498 117.999 18.8108C117.999 25.8719 112.381 29.7779 106.341 29.7779ZM106.341 23.3179C108.955 23.3179 110.638 21.5151 110.638 18.8108C110.638 16.1066 108.955 14.3038 106.341 14.3038C103.727 14.3038 102.045 16.1066 102.045 18.8108C102.045 21.5151 103.727 23.3179 106.341 23.3179Z" fill="white"/>
<path d="M7.35547 7.79952V29.5433H14.5333V22.2951L21.7112 29.5433H28.889V7.79883H21.7112V15.047L14.5333 7.79883L7.35547 7.79952Z" fill="white"/>
<rect width="7" height="7" fill="#03A96D"/>
</svg>
