<svg width="199" height="50" viewBox="0 0 199 50" fill="none" xmlns="http://www.w3.org/2000/svg">
<path d="M68.1201 35.8731V39.9092H82.2465V49.2427H56.0117V13.9267H81.7419V23.2602H68.1201V27.0441H81.2374V35.8731H68.1201Z" fill="white"/>
<path d="M112.449 36.1253L122.59 49.2427H108.463L100.391 38.6983V49.2427H88.2829V13.9267H103.317C112.046 13.9267 118.554 18.5682 118.554 26.2873C118.554 30.7775 116.233 34.1577 112.449 36.1253ZM102.207 23.0079H100.391V29.5666H102.207C104.831 29.5666 106.193 28.2549 106.193 26.2873C106.193 24.3197 104.831 23.0079 102.207 23.0079Z" fill="white"/>
<path d="M139.791 35.3181L146.652 13.9267H159.013L145.744 49.2427H133.636L120.367 13.9267H132.929L139.791 35.3181Z" fill="white"/>
<path d="M178.555 49.9995C168.414 49.9995 158.98 43.4408 158.98 31.5847C158.98 19.7286 168.414 13.1699 178.555 13.1699C188.696 13.1699 198.13 19.7286 198.13 31.5847C198.13 43.4408 188.696 49.9995 178.555 49.9995ZM178.555 39.1524C182.944 39.1524 185.77 36.1253 185.77 31.5847C185.77 27.0441 182.944 24.017 178.555 24.017C174.166 24.017 171.34 27.0441 171.34 31.5847C171.34 36.1253 174.166 39.1524 178.555 39.1524Z" fill="white"/>
<path d="M12.3477 13.0949V49.6046H24.3999V37.4344L36.4522 49.6046H48.5045V13.0938H36.4522V25.264L24.3999 13.0938L12.3477 13.0949Z" fill="white"/>
<rect width="11.7536" height="11.7536" fill="#03A96D"/>
</svg>
