<svg width="201" height="83" viewBox="0 0 201 83" fill="none" xmlns="http://www.w3.org/2000/svg">
<path d="M189.667 77C189.667 79.9455 192.054 82.3333 195 82.3333C197.946 82.3333 200.333 79.9455 200.333 77C200.333 74.0545 197.946 71.6667 195 71.6667C192.054 71.6667 189.667 74.0545 189.667 77ZM0.5 2H2.52083V0H0.5V2ZM6.5625 2H10.6042V0H6.5625V2ZM14.6458 2H18.6875V0H14.6458V2ZM22.7292 2H26.7708V0H22.7292V2ZM30.8125 2H34.8542V0H30.8125V2ZM38.8958 2H42.9375V0H38.8958V2ZM46.9792 2H51.0208V0H46.9792V2ZM55.0625 2H59.1042V0H55.0625V2ZM63.1458 2H67.1875V0H63.1458V2ZM71.2292 2H75.2708V0H71.2292V2ZM79.3125 2H83.3542V0H79.3125V2ZM87.3958 2H91.4375V0H87.3958V2ZM95.4792 2H99.5208V0H95.4792V2ZM103.562 2H107.604V0H103.562V2ZM111.646 2H115.687V0H111.646V2ZM119.729 2H123.771V0H119.729V2ZM127.812 2H131.854V0H127.812V2ZM135.896 2H139.937V0H135.896V2ZM143.979 2H146V0H143.979V2ZM146 2C146.632 2 147.262 2.01222 147.888 2.03643L147.965 0.0379262C147.313 0.0127182 146.658 0 146 0V2ZM151.647 2.32852C152.903 2.4757 154.144 2.6714 155.369 2.91366L155.757 0.95168C154.481 0.69927 153.188 0.495413 151.879 0.342102L151.647 2.32852ZM159.035 3.7908C160.25 4.13272 161.445 4.52124 162.618 4.95432L163.311 3.07801C162.088 2.62675 160.843 2.22191 159.577 1.86563L159.035 3.7908ZM166.1 6.39828C167.244 6.9265 168.364 7.49845 169.457 8.11197L170.436 6.36786C169.297 5.72874 168.131 5.13288 166.939 4.58253L166.1 6.39828ZM172.669 10.0843C173.715 10.7844 174.731 11.5246 175.717 12.3026L176.956 10.7327C175.93 9.92247 174.871 9.15157 173.781 8.42233L172.669 10.0843ZM178.582 14.752C179.505 15.6056 180.394 16.4948 181.248 17.4177L182.716 16.0598C181.827 15.0987 180.901 14.1726 179.94 13.2837L178.582 14.752ZM183.697 20.2831C184.475 21.2686 185.216 22.2854 185.916 23.3311L187.578 22.2185C186.848 21.1292 186.078 20.0703 185.267 19.0438L183.697 20.2831ZM187.888 26.5429C188.502 27.6361 189.073 28.7557 189.602 29.8996L191.417 29.0611C190.867 27.8693 190.271 26.7029 189.632 25.5641L187.888 26.5429ZM191.046 33.3818C191.479 34.5553 191.867 35.7503 192.209 36.9649L194.134 36.423C193.778 35.1574 193.373 33.9121 192.922 32.6893L191.046 33.3818ZM193.086 40.6311C193.329 41.8557 193.524 43.0971 193.671 44.3535L195.658 44.1208C195.505 42.8121 195.301 41.5189 195.048 40.243L193.086 40.6311ZM193.964 48.1121C193.988 48.7383 194 49.3677 194 50H196C196 49.3419 195.987 48.6868 195.962 48.0348L193.964 48.1121ZM194 50V52.25H196V50H194ZM194 56.75V61.25H196V56.75H194ZM194 65.75V70.25H196V65.75H194ZM194 74.75V77H196V74.75H194Z" fill="#AEAEAE"/>
</svg>
