<svg width="326" height="87" viewBox="0 0 326 87" fill="none" xmlns="http://www.w3.org/2000/svg">
<path d="M325.333 81C325.333 83.9455 322.946 86.3333 320 86.3333C317.054 86.3333 314.667 83.9455 314.667 81C314.667 78.0545 317.054 75.6667 320 75.6667C322.946 75.6667 325.333 78.0545 325.333 81ZM319 81V78.9167H321V81H319ZM319 74.75V70.5833H321V74.75H319ZM319 66.4167V62.25H321V66.4167H319ZM319 58.0833V53.9167H321V58.0833H319ZM319 49.75V45.5833H321V49.75H319ZM319 41.4167V37.25H321V41.4167H319ZM319 33.0833V31H321V33.0833H319ZM319 31C319 30.3617 318.979 29.7283 318.939 29.1005L320.935 28.9715C320.978 29.6422 321 30.3186 321 31H319ZM318.448 25.3392C318.2 24.0867 317.872 22.8634 317.468 21.6747L319.362 21.0319C319.794 22.3033 320.145 23.6117 320.41 24.9511L318.448 25.3392ZM316.016 18.1714C315.453 17.0327 314.818 15.9362 314.116 14.8878L315.778 13.7752C316.528 14.8957 317.207 16.0679 317.809 17.2855L316.016 18.1714ZM311.804 11.8791C310.969 10.9276 310.072 10.0311 309.121 9.19599L310.44 7.69283C311.457 8.58521 312.415 9.54307 313.307 10.5598L311.804 11.8791ZM306.112 6.88401C305.064 6.18216 303.967 5.54693 302.829 4.98432L303.715 3.19124C304.932 3.79281 306.104 4.47191 307.225 5.22207L306.112 6.88401ZM299.325 3.53163C298.137 3.12821 296.913 2.79978 295.661 2.55201L296.049 0.590034C297.388 0.854998 298.697 1.20624 299.968 1.63773L299.325 3.53163ZM291.899 2.06118C291.272 2.02061 290.638 2 290 2V0C290.681 0 291.358 0.0219984 292.028 0.0653408L291.899 2.06118ZM290 2L287.986 2V0L290 0V2ZM283.958 2L279.931 2V0L283.958 0V2ZM275.903 2L271.875 2V0L275.903 0V2ZM267.847 2L263.819 2V0L267.847 0V2ZM259.792 2L255.764 2V0L259.792 0V2ZM251.736 2L247.708 2V0L251.736 0V2ZM243.681 2L239.653 2V0L243.681 0V2ZM235.625 2L231.597 2V0L235.625 0V2ZM227.569 2L223.542 2V0L227.569 0V2ZM219.514 2L215.486 2V0L219.514 0V2ZM211.458 2L207.431 2V0L211.458 0V2ZM203.403 2L199.375 2V0L203.403 0V2ZM195.347 2L191.319 2V0L195.347 0V2ZM187.292 2L183.264 2V0L187.292 0V2ZM179.236 2L175.208 2V0L179.236 0V2ZM171.181 2L167.153 2V0L171.181 0V2ZM163.125 2L159.097 2V0L163.125 0V2ZM155.069 2L151.042 2V0L155.069 0V2ZM147.014 2L142.986 2V0L147.014 0V2ZM138.958 2L134.931 2V0L138.958 0V2ZM130.903 2L126.875 2V0L130.903 0V2ZM122.847 2L118.819 2V0L122.847 0V2ZM114.792 2L110.764 2V0L114.792 0V2ZM106.736 2L102.708 2V0L106.736 0V2ZM98.6806 2L94.6529 2V0L98.6806 0V2ZM90.6251 2L86.5973 2V0L90.6251 0V2ZM82.5695 2L78.5418 2V0L82.5695 0V2ZM74.514 2L70.4862 2V0L74.514 0V2ZM66.4585 2L62.4307 2V0L66.4585 0V2ZM58.4029 2L54.3752 2V0L58.4029 0V2ZM50.3474 2L46.3196 2V0L50.3474 0V2ZM42.2918 2L38.2641 2V0L42.2918 0V2ZM34.2363 2L30.2085 2V0L34.2363 0V2ZM26.1807 2L22.153 2V0L26.1807 0V2ZM18.1252 2L14.0974 2V0L18.1252 0V2ZM10.0697 2L6.0419 2V0L10.0697 0V2ZM2.01412 2L-4.76837e-06 2V0L2.01412 0V2Z" fill="#AEAEAE"/>
</svg>
